<?xml version="1.0" encoding="utf-8"?>
<!-- Generator: Adobe Illustrator 18.1.1, SVG Export Plug-In . SVG Version: 6.00 Build 0)  -->
<!DOCTYPE svg PUBLIC "-//W3C//DTD SVG 1.1//EN" "http://www.w3.org/Graphics/SVG/1.1/DTD/svg11.dtd">
<svg version="1.1" id="Layer" xmlns="http://www.w3.org/2000/svg" xmlns:xlink="http://www.w3.org/1999/xlink" x="0px" y="0px"
	 width="35px" height="35px" viewBox="0 0 35 35" enable-background="new 0 0 35 35" xml:space="preserve">
<polygon points="11,31 11,27 12,27 12,30 23,30 23,27 24,27 24,31 "/>
<polygon points="23,25 12,25 12,27 13,27 13,26 22,26 22,27 23,27 "/>
<g>
	<polygon fill="#AAAAAA" points="13.5,23.5 13.5,22.5 12.5,22.5 12.5,18.5 13.5,18.5 13.5,15.5 14.5,15.5 14.5,13.5 15.5,13.5 
		15.5,11.5 16.5,11.5 16.5,8.5 17.5,8.5 17.5,4.5 17.5,8.5 18.5,8.5 18.5,11.5 19.5,11.5 19.5,13.5 20.5,13.5 20.5,15.5 21.5,15.5 
		21.5,18.5 22.5,18.5 22.5,22.5 21.5,22.5 21.5,23.5 	"/>
	<path fill="#555555" d="M18,9v2v1h1v1v1h1v1v1h1v2v1h1v3h-1v1h-7v-1h-1v-3h1v-1v-2h1v-1v-1h1v-1v-1h1v-1V9H18 M18,4h-1v4h-1v3h-1v2
		h-1v2h-1v3h-1v5h1v1h9v-1h1v-5h-1v-3h-1v-2h-1v-2h-1V8h-1V4L18,4z"/>
</g>
</svg>
