<?xml version="1.0" encoding="utf-8"?>
<!-- Generator: Adobe Illustrator 18.1.1, SVG Export Plug-In . SVG Version: 6.00 Build 0)  -->
<!DOCTYPE svg PUBLIC "-//W3C//DTD SVG 1.1//EN" "http://www.w3.org/Graphics/SVG/1.1/DTD/svg11.dtd">
<svg version="1.1" id="Layer" xmlns="http://www.w3.org/2000/svg" xmlns:xlink="http://www.w3.org/1999/xlink" x="0px" y="0px"
	 width="35px" height="35px" viewBox="-942 558 35 35" enable-background="new -942 558 35 35" xml:space="preserve">
<polygon points="-931,589 -931,585 -930,585 -930,588 -919,588 -919,585 -918,585 -918,589 "/>
<polygon points="-919,583 -930,583 -930,585 -929,585 -929,584 -920,584 -920,585 -919,585 "/>
<polygon points="-929,582 -920,582 -920,580 -919,580 -919,575 -920,575 -920,573 -921,573 -921,570 -922,570 -922,568 -923,568 
	-923,565 -924,565 -924,562 -925,562 -925,565 -926,565 -926,568 -927,568 -927,570 -928,570 -928,573 -929,573 -929,575 -930,575 
	-930,580 -929,580 "/>
</svg>
