<?xml version="1.0" encoding="utf-8"?>
<!-- Generator: Adobe Illustrator 18.1.1, SVG Export Plug-In . SVG Version: 6.00 Build 0)  -->
<!DOCTYPE svg PUBLIC "-//W3C//DTD SVG 1.1//EN" "http://www.w3.org/Graphics/SVG/1.1/DTD/svg11.dtd">
<svg version="1.1" id="Layer" xmlns="http://www.w3.org/2000/svg" xmlns:xlink="http://www.w3.org/1999/xlink" x="0px" y="0px"
	 width="35px" height="35px" viewBox="0 0 35 35" enable-background="new 0 0 35 35" xml:space="preserve">
<g>
	<rect x="15" y="10" width="1" height="3"/>
	<rect x="14" y="13" width="1" height="3"/>
	<rect x="13" y="16" width="1" height="3"/>
	<rect x="12" y="19" width="1" height="3"/>
	<rect x="19" y="10" width="1" height="3"/>
	<path d="M18,6V4h-1v2h-1v4h3V6H18z M17,9V7h1v2H17z"/>
	<rect x="20" y="13" width="1" height="3"/>
	<rect x="21" y="16" width="1" height="3"/>
	<rect x="22" y="19" width="1" height="3"/>
	<polygon points="23,22 23,25 12,25 12,22 11,22 11,26 24,26 24,22 	"/>
	<rect x="11" y="27" width="13" height="4"/>
</g>
</svg>
