<?xml version="1.0" encoding="utf-8"?>
<!-- Generator: Adobe Illustrator 18.1.1, SVG Export Plug-In . SVG Version: 6.00 Build 0)  -->
<!DOCTYPE svg PUBLIC "-//W3C//DTD SVG 1.1//EN" "http://www.w3.org/Graphics/SVG/1.1/DTD/svg11.dtd">
<svg version="1.1" id="Layer" xmlns="http://www.w3.org/2000/svg" xmlns:xlink="http://www.w3.org/1999/xlink" x="0px" y="0px"
	 width="35px" height="35px" viewBox="0 0 35 35" enable-background="new 0 0 35 35" xml:space="preserve">
<polygon points="11,31 11,27 12,27 12,30 23,30 23,27 24,27 24,31 "/>
<polygon points="23,25 12,25 12,27 13,27 13,26 22,26 22,27 23,27 "/>
<polygon points="13,24 22,24 22,23 23,23 23,18 22,18 22,15 21,15 21,13 20,13 20,11 19,11 19,8 18,8 18,4 17,4 17,8 16,8 16,11 
	15,11 15,13 14,13 14,15 13,15 13,18 12,18 12,23 13,23 "/>
</svg>
