<?xml version="1.0" encoding="utf-8"?>
<!-- Generator: Adobe Illustrator 18.1.1, SVG Export Plug-In . SVG Version: 6.00 Build 0)  -->
<!DOCTYPE svg PUBLIC "-//W3C//DTD SVG 1.1//EN" "http://www.w3.org/Graphics/SVG/1.1/DTD/svg11.dtd">
<svg version="1.1" id="Layer" xmlns="http://www.w3.org/2000/svg" xmlns:xlink="http://www.w3.org/1999/xlink" x="0px" y="0px"
	 width="35px" height="35px" viewBox="-942 558 35 35" enable-background="new -942 558 35 35" xml:space="preserve">
<polygon points="-931,589 -931,585 -930,585 -930,588 -919,588 -919,585 -918,585 -918,589 "/>
<polygon points="-919,583 -930,583 -930,585 -929,585 -929,584 -920,584 -920,585 -919,585 "/>
<g>
	<polygon fill="#AAAAAA" points="-928.5,581.5 -928.5,579.5 -929.5,579.5 -929.5,575.5 -928.5,575.5 -928.5,573.5 -927.5,573.5 
		-927.5,570.5 -926.5,570.5 -926.5,568.5 -925.5,568.5 -925.5,565.5 -924.5,565.5 -924.5,562.5 -924.5,565.5 -923.5,565.5 
		-923.5,568.5 -922.5,568.5 -922.5,570.5 -921.5,570.5 -921.5,573.5 -920.5,573.5 -920.5,575.5 -919.5,575.5 -919.5,579.5 
		-920.5,579.5 -920.5,581.5 	"/>
	<path fill="#555555" d="M-924,566v2v1h1v1v1h1v2v1h1v1v1h1v3h-1v2h-7v-2h-1v-3h1v-1v-1h1v-1v-2h1v-1v-1h1v-1v-2H-924 M-924,562h-1
		v3h-1v3h-1v2h-1v3h-1v2h-1v5h1v2h9v-2h1v-5h-1v-2h-1v-3h-1v-2h-1v-3h-1V562L-924,562z"/>
</g>
</svg>
