<?xml version="1.0" encoding="utf-8"?>
<!-- Generator: Adobe Illustrator 18.1.1, SVG Export Plug-In . SVG Version: 6.00 Build 0)  -->
<!DOCTYPE svg PUBLIC "-//W3C//DTD SVG 1.1//EN" "http://www.w3.org/Graphics/SVG/1.1/DTD/svg11.dtd">
<svg version="1.1" id="Layer" xmlns="http://www.w3.org/2000/svg" xmlns:xlink="http://www.w3.org/1999/xlink" x="0px" y="0px"
	 width="35px" height="35px" viewBox="0 0 35 35" enable-background="new 0 0 35 35" xml:space="preserve">
<g>
	<path d="M22.4,26l0.6,1.2V30H12v-2.8l0.6-1.2H22.4 M23,25H12l-1,2v4h13v-4L23,25z"/>
	<g>
		<path fill="#AAAAAA" d="M13.3,24l-0.4-0.7c-0.3-0.7-0.4-1.3-0.4-2v-0.9c0-1.3,0.2-2.4,0.7-3.5l3.3-8.2l1-3.1l1,3.1l3.3,8.3
			c0.5,1.1,0.7,2.2,0.7,3.5v0.9c0,0.6-0.2,1.3-0.5,2L21.7,24H13.3z"/>
		<path fill="#555555" d="M17.5,7.2l0.6,1.7l0,0l0,0l3.3,8.3c0.4,1,0.6,2.1,0.6,3.3v0.9c0,0.5-0.1,1.2-0.4,1.8l-0.2,0.3h-7.8
			l-0.2-0.4c-0.3-0.7-0.4-1.2-0.4-1.8v-0.9c0-1.2,0.2-2.3,0.6-3.3l3.3-8.2l0,0l0,0L17.5,7.2 M17.5,4L16,8.5l-3.3,8.2
			c-0.5,1.2-0.7,2.4-0.7,3.7v0.9c0,0.8,0.2,1.5,0.5,2.2l0.5,1h9l0.5-0.9c0.3-0.7,0.5-1.5,0.5-2.2v-0.9c0-1.3-0.2-2.5-0.7-3.7L19,8.5
			L17.5,4L17.5,4z"/>
	</g>
</g>
</svg>
