<?xml version="1.0" encoding="utf-8"?>
<!-- Generator: Adobe Illustrator 18.1.1, SVG Export Plug-In . SVG Version: 6.00 Build 0)  -->
<!DOCTYPE svg PUBLIC "-//W3C//DTD SVG 1.1//EN" "http://www.w3.org/Graphics/SVG/1.1/DTD/svg11.dtd">
<svg version="1.1" id="Layer" xmlns="http://www.w3.org/2000/svg" xmlns:xlink="http://www.w3.org/1999/xlink" x="0px" y="0px"
	 width="35px" height="35px" viewBox="0 0 35 35" enable-background="new 0 0 35 35" xml:space="preserve">
<rect x="15" y="10" width="1" height="3"/>
<polygon points="18,7 18,4 17,4 17,7 16,7 16,10 19,10 19,7 "/>
<rect x="14" y="13" width="1" height="3"/>
<rect x="13" y="16" width="1" height="3"/>
<rect x="12" y="19" width="1" height="3"/>
<rect x="11" y="22" width="1" height="2"/>
<rect x="19" y="10" width="1" height="3"/>
<rect x="20" y="13" width="1" height="3"/>
<rect x="21" y="16" width="1" height="3"/>
<rect x="22" y="19" width="1" height="3"/>
<rect x="23" y="22" width="1" height="2"/>
<polygon points="13,26 13,25 11,25 11,31 14,31 14,26 "/>
<polygon points="22,25 22,26 21,26 21,31 24,31 24,25 "/>
<polygon points="19,26 19,25 16,25 16,26 15,26 15,31 20,31 20,26 "/>
</svg>
