<?xml version="1.0" encoding="utf-8"?>
<!-- Generator: Adobe Illustrator 18.1.1, SVG Export Plug-In . SVG Version: 6.00 Build 0)  -->
<!DOCTYPE svg PUBLIC "-//W3C//DTD SVG 1.1//EN" "http://www.w3.org/Graphics/SVG/1.1/DTD/svg11.dtd">
<svg version="1.1" id="Layer" xmlns="http://www.w3.org/2000/svg" xmlns:xlink="http://www.w3.org/1999/xlink" x="0px" y="0px"
	 width="35px" height="35px" viewBox="0 0 35 35" enable-background="new 0 0 35 35" xml:space="preserve">
<g>
	<path d="M22.4,26l0.6,1.2V30H12v-2.8l0.6-1.2H22.4 M23,25H12l-1,2v4h13v-4L23,25z"/>
	<path d="M13,24.5h9l0.5-0.9c0.3-0.7,0.5-1.5,0.5-2.2v-0.9c0-1.3-0.2-2.5-0.7-3.7L19,8.5L17.5,4L16,8.5l-3.3,8.2
		c-0.5,1.2-0.7,2.4-0.7,3.7v0.9c0,0.8,0.2,1.5,0.5,2.2L13,24.5z"/>
</g>
</svg>
