<?xml version="1.0" encoding="utf-8"?>
<!-- Generator: Adobe Illustrator 18.1.1, SVG Export Plug-In . SVG Version: 6.00 Build 0)  -->
<!DOCTYPE svg PUBLIC "-//W3C//DTD SVG 1.1//EN" "http://www.w3.org/Graphics/SVG/1.1/DTD/svg11.dtd">
<svg version="1.1" id="Layer" xmlns="http://www.w3.org/2000/svg" xmlns:xlink="http://www.w3.org/1999/xlink" x="0px" y="0px"
	 width="35px" height="35px" viewBox="0 0 35 35" enable-background="new 0 0 35 35" xml:space="preserve">
<g>
	<path fill="#141414" d="M11,24v1h2c0-0.3,0-0.7,0-1H11z"/>
	<path fill="#434343" d="M13,24c0,0.3,0,0.7,0,1c2.6,0,4.7,0,7,0c0-0.3,0-0.7,0-1H13z"/>
	<path fill="#141414" d="M20,24c0,0.3,0,0.7,0,1c1,0,4,0,4,0v-1H20z"/>
	<path fill="#1A1819" d="M12,25v1c2.4,0,5.3,0,8,0c0-0.3,0-0.7,0-1C17.3,25,14.9,25,12,25z"/>
	<path fill="#0D0C0D" d="M23,25c-1.1,0-2,0-3,0c0,0.3,0,0.7,0,1c1,0,2,0,3,0V25z"/>
	<path fill="#141414" d="M11,26v5h2c0-1.8,0-3.3,0-5H11z"/>
	<path fill="#434343" d="M20,26c-2.4,0-4.9,0-7,0c0,1.7,0,3.2,0,5h7C20,29.2,20,27.7,20,26z"/>
	<path fill="#141414" d="M24,26c0,0-3,0-4,0c0,1.7,0,3.2,0,5h4V26z"/>
	<polygon fill="#D6DCE4" points="21,24 11,24 15,10 19,10 	"/>
	<rect x="16" y="8" fill="#CCCCCC" width="1.5" height="2"/>
	<path fill="#646464" d="M17.6,4H17l-0.3,1c0.5,0,0.4,0,0.9,0V4z"/>
	<path fill="#E8E8E8" d="M16.8,5L16,8h2l-0.4-3C17.1,5,17.3,5,16.8,5z"/>
	<path fill="#A2A2A2" d="M18.3,5c-0.2,0-0.5,0-0.7,0L18,8h-1v2h2V8L18.3,5z"/>
	<path fill="#3F3F3F" d="M18,4h-0.5l0.1,1c0.2,0,0.5,0,0.7,0L18,4z"/>
	<polygon fill="#A2A2A2" points="16,10 16,8 16.7,5 17,5 16.5,8 16.5,10 	"/>
	<polygon fill="#898B8E" points="18,10 20,24 24,24 20,10 	"/>
	<polygon fill="#898B8E" points="15,10 11,24 12,24 15.5,10 	"/>
</g>
</svg>
