<?xml version="1.0" encoding="utf-8"?>
<!-- Generator: Adobe Illustrator 18.1.1, SVG Export Plug-In . SVG Version: 6.00 Build 0)  -->
<!DOCTYPE svg PUBLIC "-//W3C//DTD SVG 1.1//EN" "http://www.w3.org/Graphics/SVG/1.1/DTD/svg11.dtd">
<svg version="1.1" id="Layer" xmlns="http://www.w3.org/2000/svg" xmlns:xlink="http://www.w3.org/1999/xlink" x="0px" y="0px"
	 width="35px" height="35px" viewBox="0 0 35 35" enable-background="new 0 0 35 35" xml:space="preserve">
<path fill="#5C5C5C" d="M17.5,4H17l-1.8,6c1.8,0,2,0,3.8,0L17.5,4z"/>
<path fill="#E8DACA" d="M19,10c-1.8,0-2,0-3.8,0L11,24l3,3l2-2h3l2,2l2-2L19,10z"/>
<polygon fill="#CCCCCC" points="11,31 11,24 12,24 14,26 14,31 "/>
<polygon fill="#555555" points="21,31 14,31 14,26 16,24 19,24 21,26 "/>
<path fill="#1A1A1A" d="M18,4h-0.5l1,6c0.5,0,0.7,0,1.3,0L18,4z"/>
<path fill="#AEA398" d="M19.8,10c-0.6,0-0.8,0-1.3,0L21,26h3v-2L19.8,10z"/>
<polygon fill="#141414" points="21,31 24,31 24,24 23,24 21,26 "/>
</svg>
