<?xml version="1.0" encoding="utf-8"?>
<!-- Generator: Adobe Illustrator 18.1.1, SVG Export Plug-In . SVG Version: 6.00 Build 0)  -->
<!DOCTYPE svg PUBLIC "-//W3C//DTD SVG 1.1//EN" "http://www.w3.org/Graphics/SVG/1.1/DTD/svg11.dtd">
<svg version="1.1" id="Layer" xmlns="http://www.w3.org/2000/svg" xmlns:xlink="http://www.w3.org/1999/xlink" x="0px" y="0px"
	 width="200px" height="200px" viewBox="0 0 200 200" enable-background="new 0 0 200 200" xml:space="preserve">
<g>
	<g>
		<g>
			<path d="M52.8,34.7c-3.1,9.2-3.3,18.6-3.4,28.3c-0.1,10-0.3,19.9-0.3,29.9c-0.1,19.9-0.4,39.9-0.4,59.8c0,6-2,22,6.1,24
				c8.1,2,7.9-11.4,8-16c0.7-19.9-0.5-39.9-1.1-59.8c-0.4-11.3-0.7-22.6-1.3-33.9c-0.5-11-0.7-21.9-4.6-32.3
				C55.2,33.3,53.3,33.2,52.8,34.7L52.8,34.7z"/>
		</g>
	</g>
	<g>
		<g>
			<path d="M39.7,87c11.5-1.7,23.2-3.3,34.8-4.1c-1.7-2.3-3.4-4.5-5.1-6.8c-1.1,5.7-7.3,11-10.8,15.5c-3.8,4.9-7.6,9.7-11.4,14.6
				c-7.8,10-15.6,20-23.4,30c-3.7,4.7,0.9,12.8,6.9,9c35.7-22.5,71.8-45.4,113.1-56.1c-2.3-2.3-4.7-4.7-7-7
				c-3.7,18.5-5.2,37.4-3.9,56.2c0.5,7.5,1.9,15.3,8.8,19.6c6.1,3.8,13.7,3.8,20.6,3.3c7.6-0.6,7.5-12.7,0-11.8
				c-4.4,0.5-10.9,1.6-14.8-1.4c-4.7-3.6-3.5-14.2-3.6-19.3c-0.3-14.6,1-29.2,3.8-43.6c0.8-4.2-2.6-8.1-7-7
				c-42.1,10.9-79.5,34.1-115.8,57.2c2.3,3,4.6,6,6.9,9c8.6-11.1,17.1-22.1,25.7-33.2c4.1-5.3,8.2-10.5,12.2-15.8
				c3.7-4.9,8.9-10.1,9.9-16.4c0.5-3.1-1.4-7.1-5.1-6.8c-13.2,1.3-24.8,4.5-36.5,10.9C35.7,84.4,37.5,87.4,39.7,87L39.7,87z"/>
		</g>
	</g>
	<g>
		<g>
			<path d="M131.5,25.3c-2.2,1.6-3.3,2.3-3.3,5.3c-0.1,2.7,1.4,5.5,3.5,7.1c6.7,5.1,15.8-1.9,22.3-3.9c-0.9-1.6-1.8-3.1-2.7-4.7
				c-3.8,4.6-9.4,15.1-4.7,20.7c4.8,5.8,14.9,0,19.2-3.5c-1.2-1.2-2.3-2.3-3.5-3.5c-2.9,3.7-6.2,9-3.7,13.7
				c2.4,4.4,8.9,7.4,13.7,6.9c1.3-0.1,1.8-1.7,0.7-2.5c-2.1-1.5-4.6-2.3-6.7-3.9c-1.3-1-3.3-2.7-3.7-4.3c-0.4-1.9,2.2-5.2,3.2-6.4
				c1.8-2.1-0.4-5.3-3-3.9c-2.1,1.2-4.3,2.1-6.6,2.8c-2.3,0.7-4.6,2.2-4.7-2c-0.2-3.6,2.6-7.7,4.3-10.7c1.4-2.4-1.4-5.3-3.8-3.8
				c-3.5,2.2-7.6,4.3-11.5,5.6c-3.3,1.1-7.7,2.1-9.3-2.7c-0.4-1.3,0.2-4.8,0.7-6C131.8,25.4,131.6,25.1,131.5,25.3L131.5,25.3z"/>
		</g>
	</g>
</g>
</svg>
