<?xml version="1.0" encoding="utf-8"?>
<!-- reichat Logo mark v0 - Copyright (c) 2015 Yuki KAN -->
<!-- Generator: Adobe Illustrator 18.1.1, SVG Export Plug-In . SVG Version: 6.00 Build 0)  -->
<!DOCTYPE svg PUBLIC "-//W3C//DTD SVG 1.1//EN" "http://www.w3.org/Graphics/SVG/1.1/DTD/svg11.dtd">
<svg version="1.1" id="Layer" xmlns="http://www.w3.org/2000/svg" xmlns:xlink="http://www.w3.org/1999/xlink" x="0px" y="0px"
	 width="200px" height="200px" viewBox="0 0 200 200" enable-background="new 0 0 200 200" xml:space="preserve">
<path fill="#D1D1DC" d="M37.5,52.5l33.1-33.1c0.9-0.9,2.2-1.5,3.5-1.5l6.9,9l-9,27v90l-36,36V56.1C36,54.7,36.5,53.5,37.5,52.5z"/>
<path fill="#EC7CA9" d="M162,162l-54-54L90,81l-7.5-1.5c-0.9,0.9-1.5,2.2-1.5,3.5v48.3c0,2.2,1.4,4.1,3.4,4.7L162,162z"/>
<path fill="#B3B3C4" d="M159.5,56.5L108,108L82.8,82.8c-1-1-1-2.6,0-3.5L108,54l27-36h5.9c1.9,0,3.6,1.1,4.5,2.8l15,30
	C161.4,52.7,161,55,159.5,56.5z"/>
<path fill="#707093" d="M74.5,18h65.9c1.3,0,2,1.6,1.1,2.6L108,54H72V20.5C72,19.1,73.1,18,74.5,18z"/>
<polygon fill="#4B4B62" points="72,22.5 76.5,54 72,54 "/>
<polygon fill="#9D9DAD" points="108,108 85.5,85.5 110,106 "/>
<polygon fill="#4B4B62" points="108,54 139.5,22.5 106,54 "/>
</svg>
