<?xml version="1.0" encoding="utf-8"?>
<!-- Generator: Adobe Illustrator 18.1.1, SVG Export Plug-In . SVG Version: 6.00 Build 0)  -->
<!DOCTYPE svg PUBLIC "-//W3C//DTD SVG 1.1//EN" "http://www.w3.org/Graphics/SVG/1.1/DTD/svg11.dtd">
<svg version="1.1" id="Layer" xmlns="http://www.w3.org/2000/svg" xmlns:xlink="http://www.w3.org/1999/xlink" x="0px" y="0px"
	 width="35px" height="35px" viewBox="0 0 35 35" enable-background="new 0 0 35 35" xml:space="preserve">
<path fill="#BBBBBB" d="M22,25h-3c0,2,0,4,0,6h3C22,28.9,22,27.3,22,25z"/>
<path fill="#F4F4F4" d="M17,24h-4c0,2.3,0,4.7,0,7h4c0-2,0-4,0-6h5c0-0.3,0-0.7,0-1H17z"/>
<path fill="#959595" d="M17,25c0,2,0,4,0,6h2c0-2,0-4,0-6C18.3,25,17.7,25,17,25z"/>
<polygon fill="#BBBBBB" points="13,31 11,31 11,28 12,24 13,24 "/>
<polygon fill="#959595" points="22,31 24,31 24,28 23,24 22,24 "/>
<polygon fill="#C0C8CE" points="22,24 13,24 12,21 12,17 15,10 17,4 18,4 20,10 23,17 23,21 "/>
<polygon fill="#EAECEF" points="15,10 12,17 13,20 15,23 18,23 19,20 19,16 "/>
</svg>
